<svg version="1.1" id="Layer_1" xmlns="http://www.w3.org/2000/svg" xmlns:xlink="http://www.w3.org/1999/xlink" x="0px" y="0px"
	 width="100%" viewBox="0 0 512 512" enable-background="new 0 0 512 512" xml:space="preserve">
<path fill="#0B0B0B" opacity="1.000000" stroke="none" 
	d="
M477.000000,513.000000 
	C318.038666,513.000000 159.577332,513.000000 1.058002,513.000000 
	C1.058002,342.413666 1.058002,171.827286 1.058002,1.120456 
	C171.544647,1.120456 342.089386,1.120456 512.817078,1.120456 
	C512.817078,171.666489 512.817078,342.333252 512.817078,513.000000 
	C501.160553,513.000000 489.330292,513.000000 477.000000,513.000000 
M263.310638,333.376129 
	C267.350952,328.620605 268.206024,324.222351 265.625854,320.422546 
	C263.295532,316.990631 260.002960,315.020325 255.860336,316.304382 
	C251.324478,317.710297 248.792435,320.994415 248.077209,325.993195 
	C242.049347,325.999451 236.021500,326.005707 229.086990,326.007355 
	C226.120667,325.751068 223.148712,325.547363 220.189041,325.229187 
	C209.091110,324.036041 198.044617,323.433289 187.449005,328.021057 
	C169.992828,335.579407 166.960693,354.502930 180.960114,367.180054 
	C182.227264,368.327484 182.627319,371.303619 182.259720,373.204132 
	C181.490097,377.182953 179.939697,381.010803 178.709946,384.900635 
	C179.088806,385.132751 179.467682,385.364868 179.846558,385.596985 
	C184.235321,381.411652 188.624069,377.226318 193.613129,372.706482 
	C196.755585,368.738342 200.798340,367.795807 205.814407,367.883698 
	C214.529449,368.036407 223.260086,367.298645 232.550415,367.504639 
	C236.285599,367.325806 240.040863,367.333313 243.752213,366.933319 
	C254.998932,365.721130 264.065002,355.580505 263.951935,344.281189 
	C263.917572,340.845520 263.310730,337.415619 263.310638,333.376129 
M300.480774,268.392578 
	C303.316345,269.977539 306.151886,271.562531 308.997375,273.978851 
	C309.167694,279.296112 311.166290,281.563629 314.533478,279.600342 
	C316.094666,278.690094 316.226929,275.329010 317.654663,272.764679 
	C320.866211,270.876892 324.077789,268.989136 327.324646,267.080627 
	C327.567810,268.627899 327.870148,270.551483 328.162903,272.414154 
	C334.850952,273.380249 334.830872,273.380219 334.843445,267.049774 
	C334.852386,262.551544 334.695007,258.036255 335.029907,253.559830 
	C335.403503,248.566757 339.574982,245.717255 344.177917,247.036255 
	C348.089020,248.157028 348.968933,251.295212 348.984283,254.859329 
	C349.009888,260.791412 348.991241,266.723694 348.991241,272.712830 
	C351.784393,272.712830 353.724854,272.712830 355.829407,272.712830 
	C356.055054,269.847382 356.260651,267.236420 356.528717,263.832001 
	C364.647186,274.459229 371.667694,275.958099 379.805115,270.962646 
	C383.545990,271.977478 385.966309,272.634064 389.086121,273.480408 
	C389.086121,263.921021 389.086121,255.654221 389.086121,247.339615 
	C390.997375,247.339615 392.518280,247.339615 394.279449,247.339615 
	C394.279449,249.683289 394.245483,251.674561 394.286255,253.664307 
	C394.381775,258.323486 394.170624,263.023438 394.729401,267.628540 
	C395.252716,271.941345 400.067078,274.263123 405.440918,272.690491 
	C406.803558,272.291779 407.511383,269.655243 408.520081,268.046997 
	C404.961212,266.534882 401.873444,265.151337 401.652222,263.404755 
	C400.977631,258.077728 401.407440,252.610825 401.407440,246.953094 
	C406.055389,247.246750 409.769073,246.974152 407.326477,241.037277 
	C405.506042,240.791626 403.609863,240.535751 401.594757,240.263840 
	C401.458069,237.538116 401.337280,235.129517 401.232788,233.045807 
	C392.501617,230.008743 394.820129,236.708435 394.131439,239.742126 
	C389.989349,242.715973 384.074036,237.271317 381.402924,243.784027 
	C377.111481,240.149567 371.917847,238.532501 367.045135,241.162033 
	C362.751373,243.479141 359.389191,247.522461 355.999786,250.469467 
	C354.067200,240.343109 344.828217,236.531097 334.443909,244.022842 
	C334.443909,238.569687 334.443909,233.512665 334.443909,228.440781 
	C331.939178,228.440781 330.017181,228.440781 327.527344,228.440781 
	C327.527344,234.779282 327.527344,240.828247 327.527344,248.430786 
	C322.798248,241.693466 317.411957,239.405151 310.835571,240.224808 
	C304.210663,241.050507 299.934753,245.192139 296.819183,251.341125 
	C293.628296,243.812653 288.544403,239.928238 280.831421,240.110504 
	C273.322021,240.287964 268.745758,244.921097 265.067932,251.619080 
	C263.659424,245.616943 260.968353,241.662598 255.403107,240.423889 
	C250.081940,239.239548 245.710114,241.071167 242.233688,245.061295 
	C236.214661,238.955505 231.110580,238.495468 224.544266,243.068680 
	C221.524918,239.050232 217.216248,241.321548 213.571701,240.720306 
	C210.645721,240.237595 209.058243,241.430710 208.077606,244.320648 
	C206.123062,250.080704 203.786896,255.711258 201.167938,262.544495 
	C198.431641,255.748276 196.195724,249.923126 193.704147,244.209473 
	C193.126114,242.883865 191.686264,240.993149 190.625793,240.981903 
	C186.063629,240.933517 181.495056,241.488449 176.702911,241.840210 
	C174.766235,241.431656 172.295685,240.910492 169.505386,240.321869 
	C169.254242,243.115372 169.086411,244.982101 168.853775,247.569687 
	C163.815445,241.391663 158.035507,238.948959 150.812561,240.658005 
	C143.501694,242.387894 139.948257,247.713791 137.858871,254.937607 
	C133.661850,248.262726 127.035347,247.441772 120.746147,245.907227 
	C117.577812,245.134155 114.992966,243.611542 115.536850,239.807648 
	C116.047386,236.237106 118.834885,234.302765 121.960350,234.915115 
	C125.718117,235.651352 129.220352,237.691833 132.833221,239.167633 
	C132.729416,239.609451 132.625626,240.051270 132.521820,240.493088 
	C134.204285,239.549667 135.886749,238.606262 137.513062,237.694336 
	C134.225647,229.518478 126.543282,225.981781 118.146996,228.415634 
	C112.007202,230.195389 108.113663,235.204514 108.191704,241.223343 
	C108.265633,246.924850 111.734543,251.103073 118.017487,252.893204 
	C121.055351,253.758743 124.407028,253.954590 127.114983,255.396057 
	C128.951080,256.373413 131.054169,259.055359 130.951675,260.856201 
	C130.846329,262.707184 128.544617,265.165253 126.609467,266.035400 
	C121.826843,268.185974 117.617714,266.047211 113.314117,260.032288 
	C111.440323,260.822998 109.522148,261.632446 107.674255,262.412231 
	C109.374374,269.011688 113.138229,272.601318 119.640602,273.041687 
	C123.365372,273.293976 127.540398,273.195190 130.834854,271.730133 
	C134.119766,270.269348 136.558044,266.904724 139.487640,264.266602 
	C141.722610,269.663055 146.382599,272.830872 152.932327,273.352936 
	C159.401169,273.868561 164.602341,271.319092 169.060837,266.317108 
	C169.419220,268.921814 169.681274,270.826416 169.929123,272.627777 
	C172.355026,272.627777 174.274277,272.627777 176.765335,272.627777 
	C176.765335,267.863953 176.605667,263.392242 176.823822,258.938995 
	C176.959702,256.165283 176.902359,252.889267 178.340561,250.815948 
	C179.677429,248.888794 182.790878,247.811859 185.313553,247.295090 
	C186.206360,247.112213 188.067383,249.497696 188.788269,251.037445 
	C190.972458,255.702728 192.465820,260.715271 194.891357,265.236847 
	C197.190659,269.523132 197.174820,273.344696 193.711319,277.179596 
	C185.922943,277.123199 178.128006,276.886719 170.351944,277.169250 
	C168.877060,277.222839 167.476944,279.334320 166.042343,280.496307 
	C167.474121,281.660889 168.870148,283.774536 170.343689,283.830017 
	C177.740845,284.108521 185.158249,283.848877 193.124969,284.093018 
	C194.384979,284.299866 195.644989,284.506744 197.188614,285.194946 
	C197.797318,284.868774 198.406021,284.542603 199.461731,283.658356 
	C204.730927,270.917877 210.000107,258.177368 215.269302,245.436890 
	C215.799667,245.567490 216.330017,245.698074 216.860382,245.828674 
	C216.860382,254.735397 216.860382,263.642120 216.860382,272.453674 
	C223.985901,273.211700 223.974838,273.211670 223.986420,267.046692 
	C223.994568,262.714966 223.868576,258.373810 224.110214,254.054108 
	C224.387863,249.090561 227.436859,246.334671 231.755753,246.839737 
	C236.245804,247.364807 237.285889,250.590897 237.329407,254.382675 
	C237.399277,260.471588 237.348129,266.561859 237.348129,272.685059 
	C240.194977,272.685059 242.113998,272.685059 244.456467,272.685059 
	C244.456467,266.761261 244.330353,261.123535 244.491531,255.494049 
	C244.656281,249.740768 247.070618,246.877426 251.364990,246.847733 
	C255.699722,246.817764 257.753693,249.552948 257.823944,255.669708 
	C257.888489,261.290649 257.837646,266.912903 257.837646,273.024994 
	C260.172363,272.884796 263.218903,273.284821 263.498474,272.582825 
	C264.628937,269.744446 264.907166,266.566620 265.498901,263.513885 
	C272.944641,275.105347 283.803406,276.754608 295.796844,267.996490 
	C297.164124,268.009186 298.531372,268.021881 300.480774,268.392578 
M43.501026,246.000977 
	C38.501629,246.001740 33.501507,246.055038 28.503071,245.985962 
	C24.780817,245.934540 23.078388,247.582626 22.947626,251.377228 
	C22.810587,255.353989 24.883926,256.059723 28.247871,256.043121 
	C45.745399,255.956833 63.244102,255.926086 80.741081,256.054779 
	C84.568886,256.082886 86.081734,254.849380 86.097153,250.877716 
	C86.113533,246.655960 84.075630,245.918350 80.495941,245.955231 
	C68.498634,246.078827 56.499252,246.001541 43.501026,246.000977 
M231.500031,276.996338 
	C225.006851,277.000305 218.509949,276.896393 212.024338,277.119843 
	C211.002808,277.155029 209.137222,278.780670 209.222122,279.482056 
	C209.406311,281.003510 210.406616,282.573975 211.469696,283.772858 
	C211.933914,284.296356 213.371597,284.001556 214.367264,284.002106 
	C230.850021,284.010986 247.332764,284.002777 263.815521,284.012268 
	C266.432953,284.013763 269.051666,284.065125 268.947449,280.328491 
	C268.851898,276.901855 266.373108,276.999023 263.967102,276.999146 
	C253.478073,276.999603 242.989059,276.997223 231.500031,276.996338 
M151.009827,342.027557 
	C149.778473,342.487030 148.422455,342.750488 147.337662,343.440399 
	C143.011261,346.191925 140.225983,351.855865 141.237717,356.099121 
	C142.402817,360.985687 145.472656,364.290771 150.376038,365.599457 
	C155.527039,366.974213 159.976227,365.712830 163.105194,361.256073 
	C165.809998,357.403534 167.206192,353.057068 164.630981,348.687256 
	C161.847198,343.963501 157.730438,341.115601 151.009827,342.027557 
M297.997711,284.565613 
	C298.350677,291.513519 303.883301,298.459717 310.177246,299.856934 
	C316.401733,301.238739 323.175507,297.941925 326.897339,291.594635 
	C329.213257,287.644989 330.159760,283.644989 326.540863,279.796539 
	C325.995270,281.915070 326.169525,284.053772 325.927856,286.144440 
	C325.789703,287.339722 324.974487,288.456726 324.464142,289.609009 
	C323.411255,289.047668 322.092316,288.721619 321.351654,287.884186 
	C318.201447,284.322327 314.747711,281.680328 309.610901,282.749939 
	C310.088287,283.224152 310.565674,283.698364 311.043060,284.172577 
	C307.845459,285.804932 304.647827,287.437286 301.483948,289.052399 
	C301.005676,287.069214 300.150055,283.521179 299.294434,279.973175 
	C299.085541,279.922943 298.876648,279.872742 298.667786,279.822510 
	C298.444641,281.130249 298.221527,282.438019 297.997711,284.565613 
M232.687683,300.000000 
	C239.313141,299.999817 245.938629,300.013214 252.564026,299.992462 
	C255.038544,299.984711 257.856476,300.383179 257.945862,296.612701 
	C258.034027,292.894043 255.374420,292.991486 252.790726,292.995117 
	C245.337112,293.005646 237.883408,293.016754 230.429871,292.989655 
	C227.685822,292.979675 224.418457,292.960632 224.340225,296.419830 
	C224.261169,299.914795 227.489120,300.064270 230.259567,300.001343 
	C230.756210,299.990051 231.253357,299.999908 232.687683,300.000000 
M23.656591,272.826660 
	C27.656973,273.166779 31.657413,273.689331 35.657688,273.688049 
	C36.427299,273.687805 37.914547,271.537903 37.784439,270.548889 
	C37.620331,269.301453 36.304329,267.486389 35.186573,267.232819 
	C32.833614,266.699005 30.271902,267.179962 27.821468,266.959686 
	C23.866735,266.604065 22.216959,268.076263 23.656591,272.826660 
M199.975418,293.041382 
	C199.011200,294.470337 198.046967,295.899261 197.082718,297.328186 
	C198.435394,298.217834 199.683914,299.462769 201.169708,299.898315 
	C202.689590,300.343903 204.615341,300.436676 206.045181,299.874481 
	C207.546371,299.284271 208.669952,297.733643 209.958557,296.602722 
	C208.738998,295.404144 207.711609,293.700897 206.247894,293.143494 
	C204.661514,292.539398 202.668472,293.003143 199.975418,293.041382 
M166.550400,294.206543 
	C166.855545,295.978851 166.998779,299.228912 167.492172,299.282959 
	C170.629517,299.626678 173.870865,299.432953 177.001099,298.934082 
	C177.415802,298.867981 177.939316,294.938110 177.484482,294.718323 
	C174.996643,293.516418 172.247971,292.776917 169.520859,292.200989 
	C168.821228,292.053192 167.875198,293.072052 166.550400,294.206543 
M298.143341,310.989471 
	C299.384491,309.830994 300.625641,308.672516 301.866821,307.514069 
	C300.466980,306.675781 298.995819,305.043488 297.681824,305.161469 
	C294.780365,305.421906 289.752197,302.865051 289.493958,307.676941 
	C289.223236,312.721313 294.345032,310.449890 298.143341,310.989471 
z"/>
<path fill="#F3F2F2" opacity="1.000000" stroke="none" 
	d="
M308.987457,273.147491 
	C306.151886,271.562531 303.316345,269.977539 300.086304,267.873474 
	C298.468506,264.866150 297.245178,262.377930 296.169861,260.190704 
	C288.265411,260.190704 280.565826,260.190704 272.718994,260.190704 
	C275.677734,268.560822 283.189056,269.208801 290.726013,262.053070 
	C292.644623,262.743622 294.644196,263.463318 296.867126,264.263397 
	C296.153320,265.670563 295.564758,266.830750 294.976227,267.990967 
	C283.803406,276.754608 272.944641,275.105347 265.499451,263.513977 
	C264.907166,266.566620 264.628937,269.744446 263.498474,272.582825 
	C263.218903,273.284821 260.172363,272.884796 257.837646,273.024994 
	C257.837646,266.912903 257.888489,261.290649 257.823944,255.669708 
	C257.753693,249.552948 255.699722,246.817764 251.364990,246.847733 
	C247.070618,246.877426 244.656281,249.740768 244.491531,255.494049 
	C244.330353,261.123535 244.456467,266.761261 244.456467,272.685059 
	C242.113998,272.685059 240.194977,272.685059 237.348129,272.685059 
	C237.348129,266.561859 237.399277,260.471588 237.329407,254.382675 
	C237.285889,250.590897 236.245804,247.364807 231.755753,246.839737 
	C227.436859,246.334671 224.387863,249.090561 224.110214,254.054108 
	C223.868576,258.373810 223.994568,262.714966 223.986420,267.046692 
	C223.974838,273.211670 223.985901,273.211700 216.860382,272.453674 
	C216.860382,263.642120 216.860382,254.735397 216.860382,245.828674 
	C216.330017,245.698074 215.799667,245.567490 215.269302,245.436890 
	C210.000107,258.177368 204.730927,270.917877 198.960541,283.944031 
	C197.941223,284.391022 197.423111,284.552338 196.904999,284.713623 
	C195.644989,284.506744 194.384979,284.299866 192.947006,283.622772 
	C193.423080,281.219574 194.077118,279.286652 194.731155,277.353699 
	C197.174820,273.344696 197.190659,269.523132 194.891357,265.236847 
	C192.465820,260.715271 190.972458,255.702728 188.788269,251.037445 
	C188.067383,249.497696 186.206360,247.112213 185.313553,247.295090 
	C182.790878,247.811859 179.677429,248.888794 178.340561,250.815948 
	C176.902359,252.889267 176.959702,256.165283 176.823822,258.938995 
	C176.605667,263.392242 176.765335,267.863953 176.765335,272.627777 
	C174.274277,272.627777 172.355026,272.627777 169.929123,272.627777 
	C169.681274,270.826416 169.419220,268.921814 169.060837,266.317108 
	C164.602341,271.319092 159.401169,273.868561 152.932327,273.352936 
	C146.382599,272.830872 141.722610,269.663055 139.487640,264.266602 
	C136.558044,266.904724 134.119766,270.269348 130.834854,271.730133 
	C127.540398,273.195190 123.365372,273.293976 119.640602,273.041687 
	C113.138229,272.601318 109.374374,269.011688 107.674255,262.412231 
	C109.522148,261.632446 111.440323,260.822998 113.314117,260.032288 
	C117.617714,266.047211 121.826843,268.185974 126.609467,266.035400 
	C128.544617,265.165253 130.846329,262.707184 130.951675,260.856201 
	C131.054169,259.055359 128.951080,256.373413 127.114983,255.396057 
	C124.407028,253.954590 121.055351,253.758743 118.017487,252.893204 
	C111.734543,251.103073 108.265633,246.924850 108.191704,241.223343 
	C108.113663,235.204514 112.007202,230.195389 118.146996,228.415634 
	C126.543282,225.981781 134.225647,229.518478 137.513062,237.694336 
	C135.886749,238.606262 134.204285,239.549667 132.521820,240.493088 
	C132.625626,240.051270 132.729416,239.609451 132.833221,239.167633 
	C129.220352,237.691833 125.718117,235.651352 121.960350,234.915115 
	C118.834885,234.302765 116.047386,236.237106 115.536850,239.807648 
	C114.992966,243.611542 117.577812,245.134155 120.746147,245.907227 
	C127.035347,247.441772 133.661850,248.262726 137.858871,254.937607 
	C139.948257,247.713791 143.501694,242.387894 150.812561,240.658005 
	C158.035507,238.948959 163.815445,241.391663 168.853775,247.569687 
	C169.086411,244.982101 169.254242,243.115372 169.505386,240.321869 
	C172.295685,240.910492 174.766235,241.431656 176.702911,241.840210 
	C181.495056,241.488449 186.063629,240.933517 190.625793,240.981903 
	C191.686264,240.993149 193.126114,242.883865 193.704147,244.209473 
	C196.195724,249.923126 198.431641,255.748276 201.167938,262.544495 
	C203.786896,255.711258 206.123062,250.080704 208.077606,244.320648 
	C209.058243,241.430710 210.645721,240.237595 213.571701,240.720306 
	C217.216248,241.321548 221.524918,239.050232 224.544266,243.068680 
	C231.110580,238.495468 236.214661,238.955505 242.233688,245.061295 
	C245.710114,241.071167 250.081940,239.239548 255.403107,240.423889 
	C260.968353,241.662598 263.659424,245.616943 265.067932,251.619080 
	C268.745758,244.921097 273.322021,240.287964 280.831421,240.110504 
	C288.544403,239.928238 293.628296,243.812653 296.819183,251.341125 
	C299.934753,245.192139 304.210663,241.050507 310.835571,240.224808 
	C317.411957,239.405151 322.798248,241.693466 327.527344,248.430786 
	C327.527344,240.828247 327.527344,234.779282 327.527344,228.440781 
	C330.017181,228.440781 331.939178,228.440781 334.443909,228.440781 
	C334.443909,233.512665 334.443909,238.569687 334.443909,244.022842 
	C344.828217,236.531097 354.067200,240.343109 355.999786,250.469467 
	C359.389191,247.522461 362.751373,243.479141 367.045135,241.162033 
	C371.917847,238.532501 377.111481,240.149567 381.402924,243.784027 
	C384.074036,237.271317 389.989349,242.715973 394.131439,239.742126 
	C394.820129,236.708435 392.501617,230.008743 401.232788,233.045807 
	C401.337280,235.129517 401.458069,237.538116 401.594757,240.263840 
	C403.609863,240.535751 405.506042,240.791626 407.326477,241.037277 
	C409.769073,246.974152 406.055389,247.246750 401.407440,246.953094 
	C401.407440,252.610825 400.977631,258.077728 401.652222,263.404755 
	C401.873444,265.151337 404.961212,266.534882 408.520081,268.046997 
	C407.511383,269.655243 406.803558,272.291779 405.440918,272.690491 
	C400.067078,274.263123 395.252716,271.941345 394.729401,267.628540 
	C394.170624,263.023438 394.381775,258.323486 394.286255,253.664307 
	C394.245483,251.674561 394.279449,249.683289 394.279449,247.339615 
	C392.518280,247.339615 390.997375,247.339615 389.086121,247.339615 
	C389.086121,255.654221 389.086121,263.921021 389.086121,273.480408 
	C385.966309,272.634064 383.545990,271.977478 379.805115,270.962646 
	C371.667694,275.958099 364.647186,274.459229 356.528717,263.832001 
	C356.260651,267.236420 356.055054,269.847382 355.829407,272.712830 
	C353.724854,272.712830 351.784393,272.712830 348.991241,272.712830 
	C348.991241,266.723694 349.009888,260.791412 348.984283,254.859329 
	C348.968933,251.295212 348.089020,248.157028 344.177917,247.036255 
	C339.574982,245.717255 335.403503,248.566757 335.029907,253.559830 
	C334.695007,258.036255 334.852386,262.551544 334.843445,267.049774 
	C334.830872,273.380219 334.850952,273.380249 328.162903,272.414154 
	C327.870148,270.551483 327.567810,268.627899 327.324646,267.080627 
	C324.077789,268.989136 320.866211,270.876892 316.883118,272.889465 
	C313.736847,273.058685 311.362152,273.103088 308.987457,273.147491 
M321.938751,251.650482 
	C321.044525,251.002457 320.067291,250.442520 319.270294,249.691330 
	C315.555695,246.190216 310.372040,245.977310 306.750763,249.239944 
	C303.124207,252.507278 302.521881,259.542877 305.541656,263.363159 
	C308.506592,267.114044 314.458130,268.380615 317.960327,265.052429 
	C320.870483,262.286835 323.629303,261.339050 327.332397,262.541504 
	C327.332397,258.317108 327.332397,254.560043 327.332397,250.377228 
	C325.604950,250.760056 324.204529,251.070435 321.938751,251.650482 
M169.208939,251.625565 
	C168.153946,251.450546 167.080124,251.348892 166.048111,251.084290 
	C164.246689,250.622391 162.071701,250.540451 160.759644,249.449631 
	C156.886566,246.229645 151.895538,246.103882 148.219986,249.629852 
	C144.593964,253.108307 144.159256,259.388397 147.276489,263.260376 
	C150.327576,267.050201 156.379608,268.402679 159.619095,265.019318 
	C162.583740,261.923035 165.415421,261.610199 168.914886,262.846771 
	C169.106201,262.155334 169.266129,261.844574 169.266785,261.533508 
	C169.273163,258.551147 169.252670,255.568680 169.208939,251.625565 
M374.032318,266.660614 
	C380.096191,264.406128 382.424164,261.216309 381.960602,255.627014 
	C381.588928,251.144913 379.198883,248.168503 374.832764,247.103683 
	C369.363800,245.769897 364.433838,249.175537 363.429504,254.754639 
	C362.245667,261.330933 366.129700,266.078033 374.032318,266.660614 
M273.304688,251.165649 
	C273.535950,251.903793 273.751953,253.280106 274.000702,253.286057 
	C279.205231,253.410583 284.413513,253.380081 289.875946,253.380081 
	C286.084686,245.543121 279.907471,244.647095 273.304688,251.165649 
z"/>
<path fill="#282829" opacity="1.000000" stroke="none" 
	d="
M231.984192,366.934235 
	C223.260086,367.298645 214.529449,368.036407 205.814407,367.883698 
	C200.798340,367.795807 196.755585,368.738342 193.068375,372.644653 
	C193.827454,369.954132 195.131287,367.325439 196.995087,363.567810 
	C195.579498,362.398254 193.338760,361.078857 191.816681,359.182587 
	C188.271683,354.766083 187.058945,349.636078 189.532791,344.337250 
	C191.828812,339.419342 195.866089,336.838562 201.508301,336.976807 
	C206.336929,337.095123 211.170853,336.996552 216.470764,336.997681 
	C222.429977,337.001892 227.925446,337.142792 233.410461,336.963745 
	C238.997894,336.781342 243.346237,339.057465 245.639755,343.909149 
	C248.207047,349.339996 247.308319,354.746185 242.583817,358.849823 
	C239.235764,361.757812 235.530182,364.254150 231.984192,366.934235 
z"/>
<path fill="#18191A" opacity="1.000000" stroke="none" 
	d="
M216.002441,336.993896 
	C211.170853,336.996552 206.336929,337.095123 201.508301,336.976807 
	C195.866089,336.838562 191.828812,339.419342 189.532791,344.337250 
	C187.058945,349.636078 188.271683,354.766083 191.816681,359.182587 
	C193.338760,361.078857 195.579498,362.398254 196.995087,363.567810 
	C195.131287,367.325439 193.827454,369.954132 192.768219,372.811890 
	C188.624069,377.226318 184.235321,381.411652 179.846558,385.596985 
	C179.467682,385.364868 179.088806,385.132751 178.709946,384.900635 
	C179.939697,381.010803 181.490097,377.182953 182.259720,373.204132 
	C182.627319,371.303619 182.227264,368.327484 180.960114,367.180054 
	C166.960693,354.502930 169.992828,335.579407 187.449005,328.021057 
	C198.044617,323.433289 209.091110,324.036041 220.189041,325.229187 
	C223.148712,325.547363 226.120667,325.751068 229.492035,326.361328 
	C228.973724,327.514893 228.103912,328.388672 227.117447,329.100830 
	C223.433136,331.760529 219.710617,334.367279 216.002441,336.993896 
z"/>
<path fill="#141515" opacity="1.000000" stroke="none" 
	d="
M216.470764,336.997650 
	C219.710617,334.367279 223.433136,331.760529 227.117447,329.100830 
	C228.103912,328.388672 228.973724,327.514893 229.945358,326.363647 
	C236.021500,326.005707 242.049347,325.999451 248.579498,326.345459 
	C251.204788,333.900391 256.727783,334.623291 262.966064,333.983063 
	C263.310730,337.415619 263.917572,340.845520 263.951935,344.281189 
	C264.065002,355.580505 254.998932,365.721130 243.752213,366.933319 
	C240.040863,367.333313 236.285599,367.325806 232.267303,367.219421 
	C235.530182,364.254150 239.235764,361.757812 242.583817,358.849823 
	C247.308319,354.746185 248.207047,349.339996 245.639755,343.909149 
	C243.346237,339.057465 238.997894,336.781342 233.410461,336.963745 
	C227.925446,337.142792 222.429977,337.001892 216.470764,336.997650 
z"/>
<path fill="#191A1C" opacity="1.000000" stroke="none" 
	d="
M44.000847,246.001068 
	C56.499252,246.001541 68.498634,246.078827 80.495941,245.955231 
	C84.075630,245.918350 86.113533,246.655960 86.097153,250.877716 
	C86.081734,254.849380 84.568886,256.082886 80.741081,256.054779 
	C63.244102,255.926086 45.745399,255.956833 28.247871,256.043121 
	C24.883926,256.059723 22.810587,255.353989 22.947626,251.377228 
	C23.078388,247.582626 24.780817,245.934540 28.503071,245.985962 
	C33.501507,246.055038 38.501629,246.001740 44.000847,246.001068 
z"/>
<path fill="#191A1C" opacity="1.000000" stroke="none" 
	d="
M232.000031,276.996094 
	C242.989059,276.997223 253.478073,276.999603 263.967102,276.999146 
	C266.373108,276.999023 268.851898,276.901855 268.947449,280.328491 
	C269.051666,284.065125 266.432953,284.013763 263.815521,284.012268 
	C247.332764,284.002777 230.850021,284.010986 214.367264,284.002106 
	C213.371597,284.001556 211.933914,284.296356 211.469696,283.772858 
	C210.406616,282.573975 209.406311,281.003510 209.222122,279.482056 
	C209.137222,278.780670 211.002808,277.155029 212.024338,277.119843 
	C218.509949,276.896393 225.006851,277.000305 232.000031,276.996094 
z"/>
<path fill="#18191A" opacity="1.000000" stroke="none" 
	d="
M151.426025,342.012573 
	C157.730438,341.115601 161.847198,343.963501 164.630981,348.687256 
	C167.206192,353.057068 165.809998,357.403534 163.105194,361.256073 
	C159.976227,365.712830 155.527039,366.974213 150.376038,365.599457 
	C145.472656,364.290771 142.402817,360.985687 141.237717,356.099121 
	C140.225983,351.855865 143.011261,346.191925 147.337662,343.440399 
	C148.422455,342.750488 149.778473,342.487030 151.426025,342.012573 
M148.155624,346.530487 
	C144.557541,349.652435 144.298904,353.391113 146.119354,358.590149 
	C147.631516,356.513184 149.747406,354.803070 149.451920,353.811432 
	C147.955276,348.788574 151.090775,346.975739 154.444565,344.663879 
	C152.568146,345.149841 150.691727,345.635773 148.155624,346.530487 
M148.394989,359.623688 
	C150.682632,362.739227 155.711685,363.675873 157.848343,361.190186 
	C158.231598,360.744324 157.387146,358.375336 157.128189,358.378571 
	C154.326675,358.413757 151.528915,358.745880 148.394989,359.623688 
M161.996429,353.435730 
	C161.606445,352.041840 161.216476,350.647949 160.492554,348.060394 
	C159.367508,350.145447 159.004120,351.011078 158.470230,351.754211 
	C157.939240,352.493286 157.236969,353.109283 156.607468,353.781769 
	C160.507309,357.272125 160.507309,357.272125 161.996429,353.435730 
M158.567001,347.514648 
	C158.567001,347.514648 158.478516,347.562927 158.567001,347.514648 
z"/>
<path fill="#18191A" opacity="1.000000" stroke="none" 
	d="
M297.998047,284.155701 
	C298.221527,282.438019 298.444641,281.130249 298.667786,279.822510 
	C298.876648,279.872742 299.085541,279.922943 299.294434,279.973175 
	C300.150055,283.521179 301.005676,287.069214 301.483948,289.052399 
	C304.647827,287.437286 307.845459,285.804932 311.043060,284.172577 
	C310.565674,283.698364 310.088287,283.224152 309.610901,282.749939 
	C314.747711,281.680328 318.201447,284.322327 321.351654,287.884186 
	C322.092316,288.721619 323.411255,289.047668 324.464111,289.609009 
	C324.974487,288.456726 325.789703,287.339722 325.927856,286.144440 
	C326.169525,284.053772 325.995270,281.915070 326.540863,279.796539 
	C330.159760,283.644989 329.213257,287.644989 326.897339,291.594635 
	C323.175507,297.941925 316.401733,301.238739 310.177246,299.856934 
	C303.883301,298.459717 298.350677,291.513519 297.998047,284.155701 
M320.594879,294.408844 
	C318.436066,289.593048 312.381622,287.731476 308.130859,290.576538 
	C305.401337,292.403351 305.418274,295.539093 308.502747,295.976501 
	C312.290894,296.513641 316.307800,295.437958 320.594879,294.408844 
z"/>
<path fill="#121312" opacity="1.000000" stroke="none" 
	d="
M232.218964,300.000000 
	C231.253357,299.999908 230.756210,299.990051 230.259567,300.001343 
	C227.489120,300.064270 224.261169,299.914795 224.340225,296.419830 
	C224.418457,292.960632 227.685822,292.979675 230.429871,292.989655 
	C237.883408,293.016754 245.337112,293.005646 252.790726,292.995117 
	C255.374420,292.991486 258.034027,292.894043 257.945862,296.612701 
	C257.856476,300.383179 255.038544,299.984711 252.564026,299.992462 
	C245.938629,300.013214 239.313141,299.999817 232.218964,300.000000 
z"/>
<path fill="#171718" opacity="1.000000" stroke="none" 
	d="
M194.221237,277.266663 
	C194.077118,279.286652 193.423080,281.219574 192.668793,283.465393 
	C185.158249,283.848877 177.740845,284.108521 170.343689,283.830017 
	C168.870148,283.774536 167.474121,281.660889 166.042343,280.496307 
	C167.476944,279.334320 168.877060,277.222839 170.351944,277.169250 
	C178.128006,276.886719 185.922943,277.123199 194.221237,277.266663 
z"/>
<path fill="#191A1C" opacity="1.000000" stroke="none" 
	d="
M263.138367,333.679596 
	C256.727783,334.623291 251.204788,333.900391 249.034637,326.342163 
	C248.792435,320.994415 251.324478,317.710297 255.860336,316.304382 
	C260.002960,315.020325 263.295532,316.990631 265.625854,320.422546 
	C268.206024,324.222351 267.350952,328.620605 263.138367,333.679596 
M253.120270,329.172058 
	C255.805588,332.139343 258.730957,333.444702 261.806519,329.847382 
	C264.962616,326.155823 264.910583,321.964417 261.341248,320.172638 
	C259.507629,319.252167 256.412811,319.279205 254.596710,320.230774 
	C251.324478,321.945312 251.402039,325.261017 253.120270,329.172058 
z"/>
<path fill="#141515" opacity="1.000000" stroke="none" 
	d="
M295.386536,267.993713 
	C295.564758,266.830750 296.153320,265.670563 296.867126,264.263397 
	C294.644196,263.463318 292.644623,262.743622 290.726013,262.053070 
	C283.189056,269.208801 275.677734,268.560822 272.718994,260.190704 
	C280.565826,260.190704 288.265411,260.190704 296.169861,260.190704 
	C297.245178,262.377930 298.468506,264.866150 299.795227,267.694489 
	C298.531372,268.021881 297.164124,268.009186 295.386536,267.993713 
z"/>
<path fill="#141515" opacity="1.000000" stroke="none" 
	d="
M23.452385,272.447632 
	C22.216959,268.076263 23.866735,266.604065 27.821468,266.959686 
	C30.271902,267.179962 32.833614,266.699005 35.186573,267.232819 
	C36.304329,267.486389 37.620331,269.301453 37.784439,270.548889 
	C37.914547,271.537903 36.427299,273.687805 35.657688,273.688049 
	C31.657413,273.689331 27.656973,273.166779 23.452385,272.447632 
z"/>
<path fill="#171718" opacity="1.000000" stroke="none" 
	d="
M200.414093,293.021301 
	C202.668472,293.003143 204.661514,292.539398 206.247894,293.143494 
	C207.711609,293.700897 208.738998,295.404144 209.958557,296.602722 
	C208.669952,297.733643 207.546371,299.284271 206.045181,299.874481 
	C204.615341,300.436676 202.689590,300.343903 201.169708,299.898315 
	C199.683914,299.462769 198.435394,298.217834 197.082733,297.328186 
	C198.046967,295.899261 199.011200,294.470337 200.414093,293.021301 
z"/>
<path fill="#141515" opacity="1.000000" stroke="none" 
	d="
M166.796387,293.880737 
	C167.875198,293.072052 168.821228,292.053192 169.520859,292.200989 
	C172.247971,292.776917 174.996643,293.516418 177.484482,294.718323 
	C177.939316,294.938110 177.415802,298.867981 177.001099,298.934082 
	C173.870865,299.432953 170.629517,299.626678 167.492172,299.282959 
	C166.998779,299.228912 166.855545,295.978851 166.796387,293.880737 
z"/>
<path fill="#171718" opacity="1.000000" stroke="none" 
	d="
M297.704956,310.993408 
	C294.345032,310.449890 289.223236,312.721313 289.493958,307.676941 
	C289.752197,302.865051 294.780365,305.421906 297.681824,305.161469 
	C298.995819,305.043488 300.466980,306.675781 301.866821,307.514038 
	C300.625641,308.672516 299.384491,309.830994 297.704956,310.993408 
z"/>
<path fill="#191A1C" opacity="1.000000" stroke="none" 
	d="
M308.992432,273.563171 
	C311.362152,273.103088 313.736847,273.058685 316.559265,273.046631 
	C316.226929,275.329010 316.094666,278.690094 314.533478,279.600342 
	C311.166290,281.563629 309.167694,279.296112 308.992432,273.563171 
z"/>
<path fill="#171718" opacity="1.000000" stroke="none" 
	d="
M197.046814,284.954285 
	C197.423111,284.552338 197.941223,284.391022 198.737030,284.223083 
	C198.406021,284.542603 197.797318,284.868774 197.046814,284.954285 
z"/>
<path fill="#121312" opacity="1.000000" stroke="none" 
	d="
M322.371399,251.515640 
	C324.204529,251.070435 325.604950,250.760056 327.332397,250.377228 
	C327.332397,254.560043 327.332397,258.317108 327.332397,262.541504 
	C323.629303,261.339050 320.870483,262.286835 317.960327,265.052429 
	C314.458130,268.380615 308.506592,267.114044 305.541656,263.363159 
	C302.521881,259.542877 303.124207,252.507278 306.750763,249.239944 
	C310.372040,245.977310 315.555695,246.190216 319.270294,249.691330 
	C320.067291,250.442520 321.044525,251.002457 322.371399,251.515640 
z"/>
<path fill="#121312" opacity="1.000000" stroke="none" 
	d="
M169.224396,252.105911 
	C169.252670,255.568680 169.273163,258.551147 169.266785,261.533508 
	C169.266129,261.844574 169.106201,262.155334 168.914886,262.846771 
	C165.415421,261.610199 162.583740,261.923035 159.619095,265.019318 
	C156.379608,268.402679 150.327576,267.050201 147.276489,263.260376 
	C144.159256,259.388397 144.593964,253.108307 148.219986,249.629852 
	C151.895538,246.103882 156.886566,246.229645 160.759644,249.449631 
	C162.071701,250.540451 164.246689,250.622391 166.048111,251.084290 
	C167.080124,251.348892 168.153946,251.450546 169.224396,252.105911 
z"/>
<path fill="#121312" opacity="1.000000" stroke="none" 
	d="
M373.647919,266.717285 
	C366.129700,266.078033 362.245667,261.330933 363.429504,254.754639 
	C364.433838,249.175537 369.363800,245.769897 374.832764,247.103683 
	C379.198883,248.168503 381.588928,251.144913 381.960602,255.627014 
	C382.424164,261.216309 380.096191,264.406128 373.647919,266.717285 
z"/>
<path fill="#191A1C" opacity="1.000000" stroke="none" 
	d="
M273.537048,250.842285 
	C279.907471,244.647095 286.084686,245.543121 289.875946,253.380081 
	C284.413513,253.380081 279.205231,253.410583 274.000702,253.286057 
	C273.751953,253.280106 273.535950,251.903793 273.537048,250.842285 
z"/>
<path fill="#0B0B0B" opacity="1.000000" stroke="none" 
	d="
M148.485474,346.326111 
	C150.691727,345.635773 152.568146,345.149841 154.444565,344.663879 
	C151.090775,346.975739 147.955276,348.788574 149.451920,353.811432 
	C149.747406,354.803070 147.631516,356.513184 146.119354,358.590149 
	C144.298904,353.391113 144.557541,349.652435 148.485474,346.326111 
z"/>
<path fill="#0B0B0B" opacity="1.000000" stroke="none" 
	d="
M148.562561,359.310303 
	C151.528915,358.745880 154.326675,358.413757 157.128189,358.378571 
	C157.387146,358.375336 158.231598,360.744324 157.848343,361.190186 
	C155.711685,363.675873 150.682632,362.739227 148.562561,359.310303 
z"/>
<path fill="#0B0B0B" opacity="1.000000" stroke="none" 
	d="
M161.994263,353.812744 
	C160.507309,357.272125 160.507309,357.272125 156.607468,353.781769 
	C157.236969,353.109283 157.939240,352.493286 158.470230,351.754211 
	C159.004120,351.011078 159.367508,350.145447 160.492554,348.060394 
	C161.216476,350.647949 161.606445,352.041840 161.994263,353.812744 
z"/>
<path fill="#0B0B0B" opacity="1.000000" stroke="none" 
	d="
M158.522766,347.538788 
	C158.478516,347.562927 158.567001,347.514648 158.522766,347.538788 
z"/>
<path fill="#0B0B0B" opacity="1.000000" stroke="none" 
	d="
M320.410339,294.734131 
	C316.307800,295.437958 312.290894,296.513641 308.502747,295.976501 
	C305.418274,295.539093 305.401337,292.403351 308.130859,290.576538 
	C312.381622,287.731476 318.436066,289.593048 320.410339,294.734131 
z"/>
<path fill="#121312" opacity="1.000000" stroke="none" 
	d="
M252.943817,328.818481 
	C251.402039,325.261017 251.324478,321.945312 254.596710,320.230774 
	C256.412811,319.279205 259.507629,319.252167 261.341248,320.172638 
	C264.910583,321.964417 264.962616,326.155823 261.806519,329.847382 
	C258.730957,333.444702 255.805588,332.139343 252.943817,328.818481 
z"/>
</svg>