<?xml version="1.0" encoding="UTF-8"?>
<!DOCTYPE svg PUBLIC "-//W3C//DTD SVG 1.1//EN" "http://www.w3.org/Graphics/SVG/1.1/DTD/svg11.dtd">
<svg xmlns="http://www.w3.org/2000/svg" version="1.1" width="1024px" height="1024px"
     style="shape-rendering:geometricPrecision; text-rendering:geometricPrecision; image-rendering:optimizeQuality; fill-rule:evenodd; clip-rule:evenodd">
<g><path style="opacity:0.998" fill="#b30b00" d="M 182.5,15.5 C 401.834,15.3333 621.167,15.5 840.5,16C 895.684,23.6561 938.184,50.8228 968,97.5C 980.455,118.865 988.122,141.865 991,166.5C 991.667,377.833 991.667,589.167 991,800.5C 981.075,867.741 944.908,914.574 882.5,941C 863.459,948.008 843.793,951.675 823.5,952C 615.5,952.667 407.5,952.667 199.5,952C 128.133,948.173 76.4659,914.506 44.5,851C 42.2992,843.385 39.7992,835.552 37,827.5C 33.3629,813.737 31.3629,799.737 31,785.5C 30.3333,584.167 30.3333,382.833 31,181.5C 34.964,112.59 67.464,62.4238 128.5,31C 145.911,23.3183 163.911,18.1517 182.5,15.5 Z"/></g>
<g><path style="opacity:1" fill="#fefdfd" d="M 477.5,191.5 C 514.843,189.341 538.343,206.341 548,242.5C 553.239,267.013 553.906,291.68 550,316.5C 544.895,352.525 536.395,387.692 524.5,422C 546.642,461.255 573.642,496.922 605.5,529C 626.425,526.639 647.425,524.639 668.5,523C 693.594,521.78 718.594,522.78 743.5,526C 763.342,529.052 781.342,536.386 797.5,548C 815.102,564.435 819.602,583.935 811,606.5C 805.711,617.788 797.211,625.621 785.5,630C 778.686,632.495 771.686,634.161 764.5,635C 731.675,637.435 700.342,631.768 670.5,618C 642.682,605.354 617.515,588.854 595,568.5C 544.325,578.294 494.492,591.461 445.5,608C 425.003,645.176 401.169,680.01 374,712.5C 361.735,725.77 348.568,737.937 334.5,749C 315.597,763.412 294.264,770.412 270.5,770C 247.429,767.907 231.262,756.407 222,735.5C 217.881,720.637 219.881,706.637 228,693.5C 234.432,683.831 241.932,674.998 250.5,667C 270.453,650.684 291.787,636.351 314.5,624C 337.895,612.384 361.395,601.217 385,590.5C 418.009,528.347 445.509,463.68 467.5,396.5C 450.446,359.618 439.946,320.952 436,280.5C 434.342,261.425 436.342,242.758 442,224.5C 448.583,207.747 460.416,196.747 477.5,191.5 Z"/></g>
<g><path style="opacity:1" fill="#b31002" d="M 481.5,221.5 C 494.378,220.527 501.878,226.527 504,239.5C 504.851,244.968 505.351,250.468 505.5,256C 502.769,291.657 495.935,326.49 485,360.5C 473.528,330.742 467.028,299.909 465.5,268C 465.26,254.599 467.76,241.765 473,229.5C 475.729,226.601 478.562,223.934 481.5,221.5 Z"/></g>
<g><path style="opacity:1" fill="#b30f02" d="M 508.5,468.5 C 509.496,468.414 510.329,468.748 511,469.5C 526.467,493.423 543.633,516.09 562.5,537.5C 531.537,544.907 500.871,552.574 470.5,560.5C 484.837,530.497 497.503,499.831 508.5,468.5 Z"/></g>
<g><path style="opacity:1" fill="#b30e01" d="M 664.5,552.5 C 687.561,551.921 710.561,552.754 733.5,555C 745.322,556.179 753.822,562.012 759,572.5C 761.008,589.501 753.508,599.334 736.5,602C 720.891,603.017 705.891,600.351 691.5,594C 668.722,585.122 648.055,572.956 629.5,557.5C 631.078,556.702 632.744,556.202 634.5,556C 644.657,554.887 654.657,553.72 664.5,552.5 Z"/></g>
<g><path style="opacity:1" fill="#b41102" d="M 364.5,632.5 C 367.907,632.125 368.407,633.125 366,635.5C 346.986,666.312 324.486,694.478 298.5,720C 290.362,727.403 281.029,732.736 270.5,736C 258.756,738.096 251.756,733.262 249.5,721.5C 252.381,709.781 258.381,699.948 267.5,692C 286.526,675.652 307.192,661.652 329.5,650C 341.259,644.121 352.925,638.287 364.5,632.5 Z"/></g>
</svg>
